<mxfile host="app.diagrams.net" modified="2021-10-27T10:27:47.687Z" agent="5.0 (Windows NT 10.0; Win64; x64) AppleWebKit/537.36 (KHTML, like Gecko) Chrome/94.0.4606.81 Safari/537.36" etag="h_UX_bY_4C7VkgdgzzQk" version="15.5.9" type="github">
  <diagram id="1iBdhRnbMOmGaZjcbwhd" name="Page-1">
    <mxGraphModel dx="788" dy="556" grid="1" gridSize="10" guides="1" tooltips="1" connect="1" arrows="1" fold="1" page="1" pageScale="1" pageWidth="827" pageHeight="1169" math="0" shadow="0">
      <root>
        <mxCell id="0" />
        <mxCell id="1" parent="0" />
        <mxCell id="snACr5XQytLRjpdYScF2-44" value="" style="rounded=0;whiteSpace=wrap;html=1;" vertex="1" parent="1">
          <mxGeometry x="580" y="362" width="360" height="390" as="geometry" />
        </mxCell>
        <mxCell id="snACr5XQytLRjpdYScF2-1" value="Frontend" style="rounded=0;whiteSpace=wrap;html=1;" vertex="1" parent="1">
          <mxGeometry x="160" y="250" width="140" height="70" as="geometry" />
        </mxCell>
        <mxCell id="snACr5XQytLRjpdYScF2-2" value="Client" style="rounded=0;whiteSpace=wrap;html=1;" vertex="1" parent="1">
          <mxGeometry x="160" y="40" width="140" height="80" as="geometry" />
        </mxCell>
        <mxCell id="snACr5XQytLRjpdYScF2-4" value="" style="endArrow=classic;html=1;rounded=0;" edge="1" parent="1">
          <mxGeometry width="50" height="50" relative="1" as="geometry">
            <mxPoint x="250" y="242" as="sourcePoint" />
            <mxPoint x="250" y="122" as="targetPoint" />
          </mxGeometry>
        </mxCell>
        <mxCell id="snACr5XQytLRjpdYScF2-5" value="" style="endArrow=classic;html=1;rounded=0;" edge="1" parent="1">
          <mxGeometry width="50" height="50" relative="1" as="geometry">
            <mxPoint x="210" y="124" as="sourcePoint" />
            <mxPoint x="210" y="244" as="targetPoint" />
          </mxGeometry>
        </mxCell>
        <mxCell id="snACr5XQytLRjpdYScF2-6" value="Login/Request for test" style="text;html=1;strokeColor=none;fillColor=none;align=center;verticalAlign=middle;whiteSpace=wrap;rounded=0;" vertex="1" parent="1">
          <mxGeometry x="50" y="160" width="140" height="30" as="geometry" />
        </mxCell>
        <mxCell id="snACr5XQytLRjpdYScF2-7" value="Get Back the Result" style="text;html=1;strokeColor=none;fillColor=none;align=center;verticalAlign=middle;whiteSpace=wrap;rounded=0;" vertex="1" parent="1">
          <mxGeometry x="280" y="160" width="120" height="30" as="geometry" />
        </mxCell>
        <mxCell id="snACr5XQytLRjpdYScF2-8" value="" style="rounded=0;whiteSpace=wrap;html=1;" vertex="1" parent="1">
          <mxGeometry x="20" y="440" width="500" height="230" as="geometry" />
        </mxCell>
        <mxCell id="snACr5XQytLRjpdYScF2-9" value="" style="endArrow=classic;html=1;rounded=0;" edge="1" parent="1">
          <mxGeometry width="50" height="50" relative="1" as="geometry">
            <mxPoint x="210" y="320" as="sourcePoint" />
            <mxPoint x="210" y="440" as="targetPoint" />
          </mxGeometry>
        </mxCell>
        <mxCell id="snACr5XQytLRjpdYScF2-10" value="" style="endArrow=classic;html=1;rounded=0;" edge="1" parent="1">
          <mxGeometry width="50" height="50" relative="1" as="geometry">
            <mxPoint x="250" y="440" as="sourcePoint" />
            <mxPoint x="250" y="320" as="targetPoint" />
          </mxGeometry>
        </mxCell>
        <mxCell id="snACr5XQytLRjpdYScF2-11" value="Login Cookie&amp;amp;Authorization" style="rounded=0;whiteSpace=wrap;html=1;" vertex="1" parent="1">
          <mxGeometry x="30" y="535" width="120" height="45" as="geometry" />
        </mxCell>
        <mxCell id="snACr5XQytLRjpdYScF2-12" value="Backend" style="text;html=1;strokeColor=none;fillColor=none;align=center;verticalAlign=middle;whiteSpace=wrap;rounded=0;" vertex="1" parent="1">
          <mxGeometry x="30" y="440" width="60" height="30" as="geometry" />
        </mxCell>
        <mxCell id="snACr5XQytLRjpdYScF2-13" value="Data Queue" style="rounded=0;whiteSpace=wrap;html=1;" vertex="1" parent="1">
          <mxGeometry x="180" y="535" width="120" height="60" as="geometry" />
        </mxCell>
        <mxCell id="snACr5XQytLRjpdYScF2-14" value="Data Producer" style="rounded=0;whiteSpace=wrap;html=1;" vertex="1" parent="1">
          <mxGeometry x="195" y="610" width="90" height="35" as="geometry" />
        </mxCell>
        <mxCell id="snACr5XQytLRjpdYScF2-15" value="" style="curved=1;endArrow=classic;html=1;rounded=0;" edge="1" parent="1">
          <mxGeometry width="50" height="50" relative="1" as="geometry">
            <mxPoint x="70" y="535" as="sourcePoint" />
            <mxPoint x="210" y="440" as="targetPoint" />
            <Array as="points">
              <mxPoint x="120" y="535" />
              <mxPoint x="70" y="485" />
            </Array>
          </mxGeometry>
        </mxCell>
        <mxCell id="snACr5XQytLRjpdYScF2-16" value="" style="endArrow=classic;html=1;rounded=0;entryX=0.5;entryY=1;entryDx=0;entryDy=0;" edge="1" parent="1" target="snACr5XQytLRjpdYScF2-13">
          <mxGeometry width="50" height="50" relative="1" as="geometry">
            <mxPoint x="239.5" y="610" as="sourcePoint" />
            <mxPoint x="240" y="590" as="targetPoint" />
          </mxGeometry>
        </mxCell>
        <mxCell id="snACr5XQytLRjpdYScF2-17" value="Data Consumer" style="rounded=0;whiteSpace=wrap;html=1;" vertex="1" parent="1">
          <mxGeometry x="195" y="484" width="90" height="35" as="geometry" />
        </mxCell>
        <mxCell id="snACr5XQytLRjpdYScF2-18" value="" style="endArrow=classic;html=1;rounded=0;entryX=0.5;entryY=1;entryDx=0;entryDy=0;exitX=0.5;exitY=0;exitDx=0;exitDy=0;" edge="1" parent="1" source="snACr5XQytLRjpdYScF2-13" target="snACr5XQytLRjpdYScF2-17">
          <mxGeometry width="50" height="50" relative="1" as="geometry">
            <mxPoint x="249.5" y="537" as="sourcePoint" />
            <mxPoint x="250" y="522" as="targetPoint" />
          </mxGeometry>
        </mxCell>
        <mxCell id="snACr5XQytLRjpdYScF2-19" value="" style="curved=1;endArrow=classic;html=1;rounded=0;exitX=0.5;exitY=0;exitDx=0;exitDy=0;entryX=0.478;entryY=0.004;entryDx=0;entryDy=0;entryPerimeter=0;" edge="1" parent="1" source="snACr5XQytLRjpdYScF2-17" target="snACr5XQytLRjpdYScF2-8">
          <mxGeometry width="50" height="50" relative="1" as="geometry">
            <mxPoint x="310" y="500" as="sourcePoint" />
            <mxPoint x="360" y="450" as="targetPoint" />
            <Array as="points">
              <mxPoint x="260" y="480" />
              <mxPoint x="270" y="460" />
            </Array>
          </mxGeometry>
        </mxCell>
        <mxCell id="snACr5XQytLRjpdYScF2-20" value="Database" style="rounded=0;whiteSpace=wrap;html=1;" vertex="1" parent="1">
          <mxGeometry x="340" y="526" width="106" height="46" as="geometry" />
        </mxCell>
        <mxCell id="snACr5XQytLRjpdYScF2-21" value="" style="curved=1;endArrow=classic;html=1;rounded=0;entryX=1;entryY=0.5;entryDx=0;entryDy=0;exitX=0;exitY=0.5;exitDx=0;exitDy=0;" edge="1" parent="1" source="snACr5XQytLRjpdYScF2-20" target="snACr5XQytLRjpdYScF2-14">
          <mxGeometry width="50" height="50" relative="1" as="geometry">
            <mxPoint x="315" y="575" as="sourcePoint" />
            <mxPoint x="365" y="525" as="targetPoint" />
            <Array as="points">
              <mxPoint x="320" y="600" />
              <mxPoint x="320" y="610" />
            </Array>
          </mxGeometry>
        </mxCell>
        <mxCell id="snACr5XQytLRjpdYScF2-22" value="Get the Origin/Processed Data" style="text;html=1;strokeColor=none;fillColor=none;align=center;verticalAlign=middle;whiteSpace=wrap;rounded=0;" vertex="1" parent="1">
          <mxGeometry x="285" y="350" width="135" height="30" as="geometry" />
        </mxCell>
        <mxCell id="snACr5XQytLRjpdYScF2-24" value="Apply for Token" style="text;html=1;strokeColor=none;fillColor=none;align=center;verticalAlign=middle;whiteSpace=wrap;rounded=0;" vertex="1" parent="1">
          <mxGeometry x="110" y="350" width="60" height="30" as="geometry" />
        </mxCell>
        <mxCell id="snACr5XQytLRjpdYScF2-25" value="Request for Origin/Processed Data" style="text;html=1;strokeColor=none;fillColor=none;align=center;verticalAlign=middle;whiteSpace=wrap;rounded=0;" vertex="1" parent="1">
          <mxGeometry x="70" y="390" width="140" height="30" as="geometry" />
        </mxCell>
        <mxCell id="snACr5XQytLRjpdYScF2-26" value="PUT/POST&lt;br&gt;Interface" style="rounded=0;whiteSpace=wrap;html=1;" vertex="1" parent="1">
          <mxGeometry x="480" y="519" width="70" height="60" as="geometry" />
        </mxCell>
        <mxCell id="snACr5XQytLRjpdYScF2-28" value="" style="endArrow=classic;startArrow=classic;html=1;rounded=0;entryX=0;entryY=0.5;entryDx=0;entryDy=0;exitX=1;exitY=0.5;exitDx=0;exitDy=0;" edge="1" parent="1" source="snACr5XQytLRjpdYScF2-20" target="snACr5XQytLRjpdYScF2-26">
          <mxGeometry width="50" height="50" relative="1" as="geometry">
            <mxPoint x="510" y="490" as="sourcePoint" />
            <mxPoint x="560" y="440" as="targetPoint" />
          </mxGeometry>
        </mxCell>
        <mxCell id="snACr5XQytLRjpdYScF2-29" value="" style="endArrow=classic;startArrow=classic;html=1;rounded=0;exitX=1;exitY=0.5;exitDx=0;exitDy=0;entryX=0;entryY=0.479;entryDx=0;entryDy=0;entryPerimeter=0;" edge="1" parent="1" source="snACr5XQytLRjpdYScF2-26" target="snACr5XQytLRjpdYScF2-44">
          <mxGeometry width="50" height="50" relative="1" as="geometry">
            <mxPoint x="456" y="559" as="sourcePoint" />
            <mxPoint x="580" y="545" as="targetPoint" />
          </mxGeometry>
        </mxCell>
        <mxCell id="snACr5XQytLRjpdYScF2-31" value="Local" style="text;html=1;strokeColor=none;fillColor=none;align=center;verticalAlign=middle;whiteSpace=wrap;rounded=0;" vertex="1" parent="1">
          <mxGeometry x="590" y="390" width="60" height="30" as="geometry" />
        </mxCell>
        <mxCell id="snACr5XQytLRjpdYScF2-32" value="A nice guy like Yuze" style="shape=umlActor;verticalLabelPosition=bottom;verticalAlign=top;html=1;outlineConnect=0;" vertex="1" parent="1">
          <mxGeometry x="770" y="410" width="40" height="50" as="geometry" />
        </mxCell>
        <mxCell id="snACr5XQytLRjpdYScF2-38" value="" style="group" vertex="1" connectable="0" parent="1">
          <mxGeometry x="685" y="488" width="240" height="115" as="geometry" />
        </mxCell>
        <mxCell id="snACr5XQytLRjpdYScF2-30" value="" style="rounded=0;whiteSpace=wrap;html=1;" vertex="1" parent="snACr5XQytLRjpdYScF2-38">
          <mxGeometry width="240" height="115" as="geometry" />
        </mxCell>
        <mxCell id="snACr5XQytLRjpdYScF2-33" value="Cluster" style="text;html=1;strokeColor=none;fillColor=none;align=center;verticalAlign=middle;whiteSpace=wrap;rounded=0;" vertex="1" parent="snACr5XQytLRjpdYScF2-38">
          <mxGeometry y="1.2637362637362637" width="75.78947368421052" height="37.91208791208791" as="geometry" />
        </mxCell>
        <mxCell id="snACr5XQytLRjpdYScF2-34" value="Postgre" style="rounded=0;whiteSpace=wrap;html=1;" vertex="1" parent="snACr5XQytLRjpdYScF2-38">
          <mxGeometry x="6.31578947368421" y="39.175824175824175" width="66.3157894736842" height="50.54945054945055" as="geometry" />
        </mxCell>
        <mxCell id="snACr5XQytLRjpdYScF2-35" value="Spark" style="rounded=0;whiteSpace=wrap;html=1;" vertex="1" parent="snACr5XQytLRjpdYScF2-38">
          <mxGeometry x="86.84210526315789" y="39.175824175824175" width="66.3157894736842" height="50.54945054945055" as="geometry" />
        </mxCell>
        <mxCell id="snACr5XQytLRjpdYScF2-36" value="Flink" style="rounded=0;whiteSpace=wrap;html=1;" vertex="1" parent="snACr5XQytLRjpdYScF2-38">
          <mxGeometry x="170.5263157894737" y="39.175824175824175" width="66.3157894736842" height="50.54945054945055" as="geometry" />
        </mxCell>
        <mxCell id="snACr5XQytLRjpdYScF2-40" value="" style="curved=1;endArrow=classic;html=1;rounded=0;entryX=0;entryY=0.5;entryDx=0;entryDy=0;exitX=0;exitY=0.3333333333333333;exitDx=0;exitDy=0;exitPerimeter=0;" edge="1" parent="1" source="snACr5XQytLRjpdYScF2-32">
          <mxGeometry width="50" height="50" relative="1" as="geometry">
            <mxPoint x="690" y="490" as="sourcePoint" />
            <mxPoint x="580" y="545" as="targetPoint" />
            <Array as="points">
              <mxPoint x="690" y="445" />
              <mxPoint x="680" y="445" />
              <mxPoint x="650" y="460" />
              <mxPoint x="640" y="480" />
            </Array>
          </mxGeometry>
        </mxCell>
        <mxCell id="snACr5XQytLRjpdYScF2-41" value="Put/Post" style="text;html=1;strokeColor=none;fillColor=none;align=center;verticalAlign=middle;whiteSpace=wrap;rounded=0;" vertex="1" parent="1">
          <mxGeometry x="600" y="440" width="60" height="30" as="geometry" />
        </mxCell>
        <mxCell id="snACr5XQytLRjpdYScF2-42" value="" style="endArrow=classic;html=1;rounded=0;entryX=0;entryY=0.5;entryDx=0;entryDy=0;exitX=0;exitY=0.5;exitDx=0;exitDy=0;" edge="1" parent="1" source="snACr5XQytLRjpdYScF2-30">
          <mxGeometry width="50" height="50" relative="1" as="geometry">
            <mxPoint x="690" y="490" as="sourcePoint" />
            <mxPoint x="580" y="545" as="targetPoint" />
          </mxGeometry>
        </mxCell>
        <mxCell id="snACr5XQytLRjpdYScF2-43" value="Put/Post" style="text;html=1;strokeColor=none;fillColor=none;align=center;verticalAlign=middle;whiteSpace=wrap;rounded=0;" vertex="1" parent="1">
          <mxGeometry x="610" y="519" width="60" height="30" as="geometry" />
        </mxCell>
        <mxCell id="snACr5XQytLRjpdYScF2-46" value="Local Databse" style="shape=cylinder3;whiteSpace=wrap;html=1;boundedLbl=1;backgroundOutline=1;size=15;" vertex="1" parent="1">
          <mxGeometry x="760" y="660" width="60" height="80" as="geometry" />
        </mxCell>
        <mxCell id="snACr5XQytLRjpdYScF2-47" value="" style="endArrow=classic;startArrow=classic;html=1;rounded=0;entryX=0;entryY=0.5;entryDx=0;entryDy=0;entryPerimeter=0;" edge="1" parent="1" target="snACr5XQytLRjpdYScF2-46">
          <mxGeometry width="50" height="50" relative="1" as="geometry">
            <mxPoint x="580" y="550" as="sourcePoint" />
            <mxPoint x="860" y="510" as="targetPoint" />
          </mxGeometry>
        </mxCell>
        <mxCell id="snACr5XQytLRjpdYScF2-48" value="Put/Post" style="text;html=1;strokeColor=none;fillColor=none;align=center;verticalAlign=middle;whiteSpace=wrap;rounded=0;" vertex="1" parent="1">
          <mxGeometry x="670" y="610" width="60" height="30" as="geometry" />
        </mxCell>
        <mxCell id="snACr5XQytLRjpdYScF2-49" value="Get" style="text;html=1;strokeColor=none;fillColor=none;align=center;verticalAlign=middle;whiteSpace=wrap;rounded=0;" vertex="1" parent="1">
          <mxGeometry x="610" y="630" width="60" height="30" as="geometry" />
        </mxCell>
      </root>
    </mxGraphModel>
  </diagram>
</mxfile>
